<?xml version="1.0" encoding="utf-8"?>
<!-- Generator: Adobe Illustrator 16.0.3, SVG Export Plug-In . SVG Version: 6.00 Build 0)  -->
<!DOCTYPE svg PUBLIC "-//W3C//DTD SVG 1.1//EN" "http://www.w3.org/Graphics/SVG/1.1/DTD/svg11.dtd">
<svg version="1.1" id="Icons" xmlns="http://www.w3.org/2000/svg" xmlns:xlink="http://www.w3.org/1999/xlink" x="0px" y="0px"
	 width="100px" height="100px" viewBox="0 0 100 100" enable-background="new 0 0 100 100" xml:space="preserve">
<g>
	<path fill-rule="evenodd" clip-rule="evenodd" d="M49.562,62.123c-8.145,0.06-14.98-6.723-14.974-14.855
		c0.009-8.065,6.638-14.727,14.796-14.865c8.035-0.135,14.964,6.748,14.966,14.87C64.354,55.345,57.664,62.063,49.562,62.123z
		 M42.077,47.262c-0.007,4.082,3.262,7.395,7.34,7.442c4.042,0.045,7.396-3.257,7.443-7.333c0.05-4.184-3.245-7.506-7.426-7.49
		C45.336,39.896,42.083,43.16,42.077,47.262z"/>
	<g>
		<path fill="none" d="M49.947,67.605c10.854,0.041,19.682-8.7,19.745-19.551c0.024-4.252-1.309-8.201-3.583-11.442h-0.013
			c-3.561-5.067-9.429-8.399-16.053-8.413c-6.663-0.014-12.583,3.322-16.161,8.413h-0.004c-2.226,3.169-3.546,7.014-3.568,11.157
			C30.248,58.749,38.974,67.563,49.947,67.605z"/>
		<path fill="none" d="M72.647,11.605c-2.593,0.139-4.189,1.59-4.332,4.186c-0.124,2.287-0.093,4.596,0.068,6.88
			c0.138,1.958,1.331,3.34,3.274,3.536c2.506,0.252,5.066,0.324,7.573,0.117c2.452-0.201,3.658-1.748,3.83-4.26
			c0.069-1.022,0.033-2.054,0.033-3.081c0.002-6.666-0.725-7.396-7.364-7.388C74.702,11.596,73.673,11.551,72.647,11.605z"/>
		<path fill="none" d="M92.453,36.612h-0.01c-0.002-0.01-0.003-0.021-0.007-0.03c-3.66,0-7.232,0-10.804,0
			c-3.542,0-7.084,0-10.871,0c2.626,5.351,3.544,10.673,2.307,16.273c-1.254,5.669-4.18,10.299-8.783,13.811
			c-8.021,6.118-18.807,6.489-27.224,0.968c-4.061-2.665-7.058-6.261-8.887-10.77c-2.778-6.85-2.253-13.593,1.028-20.248
			c-7.359,0-14.497,0-21.762,0c0,13.95-0.198,27.713,0.091,41.465c0.125,5.923,3.184,10.576,8.938,12.772
			c2.503,0.953,5.27,1.617,7.932,1.678c9.697,0.219,19.4,0.146,29.101,0.153c7.64,0.004,15.286,0.171,22.915-0.103
			c9.146-0.329,15.896-7.011,16.099-16.193c0.282-12.968,0.121-25.947,0.138-38.92C92.654,37.205,92.538,36.939,92.453,36.612z"/>
		<path d="M94.392,15.832c-3.593-7.99-9.547-12.496-18.688-12.43c-14.809,0.105-29.618,0.16-44.426,0.046v0.005
			c-0.71-0.006-1.419-0.006-2.129-0.013v6.872c0,5.273-0.005,10.545,0.004,15.818c0.003,1.281-0.311,2.361-1.805,2.445
			c-1.63,0.09-2.051-1.059-2.063-2.392c-0.015-1.385-0.016-2.771-0.017-4.155v-5.785c0-0.142,0-0.285,0-0.428
			c0-2.77,0-5.539,0-8.297l0,0V3.404c-0.045,0-0.089-0.001-0.135-0.001c-0.828-0.009-1.633,0.019-2.413,0.079v5.811
			c0,4.098-0.003,8.139,0,12.155v4.78c-0.039,1.215-0.319,2.277-1.887,2.31c-1.756,0.034-1.981-1.3-1.987-2.656
			c-0.007-1.589-0.007-3.178-0.007-4.767V14.55c0-0.286,0-0.57,0-0.854c0-1.809,0-3.616,0-5.491V4.121
			c-0.898,0.227-1.754,0.508-2.57,0.834v5.348c-0.024,0.221-0.033,0.461-0.025,0.725c0.011,0.357,0.018,0.715,0.025,1.072v14.44
			c-0.094,1.056-0.482,1.905-1.886,1.92c-1.755,0.017-1.961-1.327-1.967-2.679c-0.007-1.293-0.007-2.584-0.007-3.876v-7.038v-2.213
			V7.043c-0.617,0.434-1.201,0.901-1.754,1.399V8.422c-2.263,2.038-3.971,4.581-5.146,7.406c-0.014,0.031-0.025,0.064-0.04,0.097
			c-0.121,0.294-0.236,0.589-0.346,0.89c-0.038,0.105-0.074,0.212-0.111,0.318c-0.079,0.227-0.156,0.453-0.229,0.682
			c-0.046,0.145-0.089,0.289-0.133,0.435c-0.057,0.191-0.111,0.384-0.164,0.577c-0.047,0.172-0.093,0.344-0.136,0.518
			c-0.04,0.163-0.077,0.326-0.115,0.489c-0.047,0.2-0.092,0.401-0.134,0.603C4.078,20.557,4.058,20.68,4.034,20.8
			c-0.11,0.579-0.208,1.163-0.28,1.753c-0.199,1.619-0.322,3.26-0.325,4.89c-0.004,3.056-0.003,6.113-0.005,9.17h0.004
			c-0.01,12.763-0.006,25.526-0.01,38.291c-0.001,4.819,0.831,9.422,3.702,13.431c3.521,4.917,8.609,7.05,14.382,7.913
			c0.529,0.08,1.046,0.232,1.568,0.352c18.438,0,36.877,0,55.315,0c3.339-0.823,6.621-1.761,9.443-3.874
			c4.569-3.419,7.295-7.956,8.387-13.522c0.08-0.396,0.243-0.776,0.366-1.163c0-18.196,0-36.393,0-54.588
			C95.87,20.903,95.465,18.217,94.392,15.832z M83.095,18.983c0,1.027,0.036,2.059-0.033,3.081c-0.172,2.512-1.378,4.059-3.83,4.26
			c-2.507,0.207-5.067,0.135-7.573-0.117c-1.943-0.196-3.137-1.578-3.274-3.536c-0.161-2.284-0.192-4.593-0.068-6.88
			c0.143-2.596,1.739-4.047,4.332-4.186c1.025-0.055,2.055-0.01,3.083-0.01C82.37,11.588,83.097,12.317,83.095,18.983z
			 M33.883,36.612c3.578-5.091,9.498-8.427,16.161-8.413c6.624,0.014,12.492,3.346,16.053,8.413h0.013
			c2.274,3.241,3.607,7.19,3.583,11.442c-0.063,10.851-8.892,19.592-19.745,19.551c-10.974-0.042-19.699-8.856-19.637-19.836
			c0.022-4.144,1.343-7.988,3.568-11.157H33.883z M92.517,76.389c-0.202,9.183-6.952,15.864-16.099,16.193
			c-7.629,0.273-15.275,0.106-22.915,0.103c-9.7-0.007-19.403,0.065-29.101-0.153c-2.662-0.061-5.429-0.725-7.932-1.678
			c-5.755-2.196-8.813-6.85-8.938-12.772C7.243,64.329,7.441,50.566,7.441,36.616c7.265,0,14.402,0,21.762,0
			c-3.281,6.655-3.807,13.398-1.028,20.248c1.829,4.509,4.826,8.104,8.887,10.77c8.417,5.521,19.203,5.15,27.224-0.968
			c4.604-3.512,7.529-8.142,8.783-13.811c1.237-5.601,0.319-10.923-2.307-16.273c3.787,0,7.329,0,10.871,0c3.571,0,7.144,0,10.804,0
			c0.004,0.01,0.005,0.021,0.007,0.03h0.01c0.085,0.327,0.201,0.593,0.201,0.856C92.638,50.441,92.799,63.421,92.517,76.389z"/>
	</g>
</g>
</svg>
