<?xml version="1.0" encoding="utf-8"?>
<!-- Generator: Adobe Illustrator 16.0.3, SVG Export Plug-In . SVG Version: 6.00 Build 0)  -->
<!DOCTYPE svg PUBLIC "-//W3C//DTD SVG 1.1//EN" "http://www.w3.org/Graphics/SVG/1.1/DTD/svg11.dtd">
<svg version="1.1" id="Icons" xmlns="http://www.w3.org/2000/svg" xmlns:xlink="http://www.w3.org/1999/xlink" x="0px" y="0px"
	 width="100px" height="100px" viewBox="0 0 100 100" enable-background="new 0 0 100 100" xml:space="preserve">
<path d="M15.273,37.339c0-3.769,0.793-7.508,2.378-11.217c1.585-3.709,3.859-7.149,6.82-10.32c2.961-3.17,6.85-5.742,11.666-7.716
	c4.815-1.974,10.154-2.961,16.018-2.961c9.511,0,17.318,2.932,23.42,8.794c6.102,5.863,9.152,12.772,9.152,20.728
	c0,10.23-2.587,18.68-7.762,25.349C71.79,66.666,65.105,70.001,56.91,70.001c-2.692,0-5.22-0.628-7.584-1.886
	c-2.362-1.255-4.022-2.78-4.979-4.575l-3.589,14.179c-0.299,1.136-0.688,2.288-1.167,3.454c-0.479,1.167-1.001,2.289-1.57,3.365
	c-0.568,1.076-1.136,2.093-1.705,3.05c-0.568,0.958-1.136,1.855-1.705,2.693c-0.568,0.837-1.062,1.54-1.48,2.108
	s-0.808,1.063-1.167,1.48l-0.538,0.718c-0.18,0.24-0.419,0.329-0.718,0.27c-0.299-0.06-0.479-0.239-0.539-0.538
	c0-0.06-0.045-0.479-0.134-1.257c-0.09-0.777-0.18-1.601-0.27-2.468s-0.179-1.989-0.269-3.365s-0.12-2.707-0.09-3.992
	c0.03-1.287,0.12-2.707,0.269-4.263c0.15-1.555,0.374-2.991,0.673-4.308c0.658-2.812,2.872-12.174,6.64-28.085
	c-0.479-0.958-0.868-2.109-1.167-3.455c-0.299-1.347-0.448-2.438-0.448-3.276l-0.09-1.346c0-3.829,0.972-7.014,2.917-9.557
	c1.944-2.543,4.291-3.813,7.043-3.813c2.214,0,3.934,0.732,5.159,2.198c1.228,1.466,1.841,3.306,1.841,5.519
	c0,1.376-0.254,3.066-0.764,5.07c-0.508,2.003-1.181,4.307-2.019,6.909c-0.838,2.603-1.436,4.712-1.794,6.327
	c-0.599,2.691-0.076,5.023,1.568,6.999c1.646,1.973,3.844,2.96,6.597,2.96c4.726,0,8.629-2.677,11.71-8.031
	c3.08-5.353,4.621-11.829,4.621-19.426c0-5.802-1.885-10.543-5.653-14.223s-9.033-5.519-15.793-5.519
	c-7.537,0-13.654,2.422-18.35,7.269c-4.696,4.845-7.044,10.648-7.044,17.408c0,4.008,1.137,7.388,3.41,10.139
	c0.777,0.897,1.017,1.855,0.718,2.871c-0.12,0.3-0.299,0.987-0.538,2.064c-0.24,1.077-0.419,1.765-0.539,2.064
	c-0.12,0.657-0.419,1.091-0.898,1.301c-0.478,0.21-1.017,0.193-1.615-0.045c-3.529-1.436-6.177-3.904-7.941-7.402
	C16.156,46.088,15.273,42.005,15.273,37.339z"/>
</svg>
